HIERARCHY
ROOT Hips
{
	OFFSET -3.958830 18.904000 13.208200
	CHANNELS 6 Xposition Yposition Zposition Zrotation Yrotation Xrotation 
	JOINT LHipJoint
	{
		OFFSET 0.000000 0.000000 0.000000
		CHANNELS 3 Zrotation Yrotation Xrotation
		JOINT LeftUpLeg
		{
			OFFSET 1.800000 -1.400000 0.085000
			CHANNELS 3 Zrotation Yrotation Xrotation
			JOINT LeftLeg
			{
				OFFSET 2.215000 -6.000000 0.000000
				CHANNELS 3 Zrotation Yrotation Xrotation
				JOINT LeftFoot
				{
					OFFSET 2.500000 -6.900000 0.000000
					CHANNELS 3 Zrotation Yrotation Xrotation
					JOINT LeftToeBase
					{
						OFFSET 0.200000 -0.500000 1.950000
						CHANNELS 3 Zrotation Yrotation Xrotation
						End Site
						{
							OFFSET 0.000000 0.000000 0.000000
						}
					}
				}
			}
		}
	}
	JOINT RHipJoint
	{
		OFFSET 0.000000 0.000000 0.000000
		CHANNELS 3 Zrotation Yrotation Xrotation
		JOINT RightUpLeg
		{
			OFFSET -1.800000 -1.400000 0.085000
			CHANNELS 3 Zrotation Yrotation Xrotation
			JOINT RightLeg
			{
				OFFSET -2.215000 -6.000000 0.000000
				CHANNELS 3 Zrotation Yrotation Xrotation
				JOINT RightFoot
				{
					OFFSET -2.500000 -6.900000 0.000000
					CHANNELS 3 Zrotation Yrotation Xrotation
					JOINT RightToeBase
					{
						OFFSET -0.200000 -0.500000 1.950000
						CHANNELS 3 Zrotation Yrotation Xrotation
						End Site
						{
							OFFSET 0.000000 0.000000 0.000000
						}
					}
				}
			}
		}
	}
	JOINT LowerBack
	{
		OFFSET 0.000000 0.000000 0.000000
		CHANNELS 3 Zrotation Yrotation Xrotation
		JOINT Spine
		{
			OFFSET -0.087000 1.940000 -0.288900
			CHANNELS 3 Zrotation Yrotation Xrotation
			JOINT Spine1
			{
				OFFSET 0.000000 1.950000 0.060000
				CHANNELS 3 Zrotation Yrotation Xrotation
				JOINT Neck
				{
					OFFSET 0.000000 0.000000 0.000000
					CHANNELS 3 Zrotation Yrotation Xrotation
					JOINT Neck1
					{
						OFFSET 0.000000 1.600000 0.340000
						CHANNELS 3 Zrotation Yrotation Xrotation
						JOINT Head
						{
							OFFSET 0.000000 1.667000 -0.240000
							CHANNELS 3 Zrotation Yrotation Xrotation
							End Site
							{
								OFFSET 0.000000 0.000000 0.000000
							}
						}
					}
				}
				JOINT LeftShoulder
				{
					OFFSET 0.000000 0.000000 0.000000
					CHANNELS 3 Zrotation Yrotation Xrotation
					JOINT LeftArm
					{
						OFFSET 2.700000 1.550000 -0.730000
						CHANNELS 3 Zrotation Yrotation Xrotation
						JOINT LeftForeArm
						{
							OFFSET 5.450000 0.000000 0.000000
							CHANNELS 3 Zrotation Yrotation Xrotation
							JOINT LeftHand
							{
								OFFSET 3.450000 0.000000 0.000000
								CHANNELS 3 Zrotation Yrotation Xrotation
								JOINT LeftHandIndex1
								{
									OFFSET 0.750000 0.000000 0.000000
									CHANNELS 3 Zrotation Yrotation Xrotation
									End Site
									{
										OFFSET 0.000000 0.000000 0.000000
									}
								}
							}
						}
					}
				}
				JOINT RightShoulder
				{
					OFFSET 0.000000 0.000000 0.000000
					CHANNELS 3 Zrotation Yrotation Xrotation
					JOINT RightArm
					{
						OFFSET -2.700000 1.550000 -0.730000
						CHANNELS 3 Zrotation Yrotation Xrotation
						JOINT RightForeArm
						{
							OFFSET -5.450000 0.000000 0.000000
							CHANNELS 3 Zrotation Yrotation Xrotation
							JOINT RightHand
							{
								OFFSET -3.450000 0.000000 0.000000
								CHANNELS 3 Zrotation Yrotation Xrotation
								JOINT RightHandIndex1
								{
									OFFSET -0.750000 0.000000 0.000000
									CHANNELS 3 Zrotation Yrotation Xrotation
									End Site
									{
										OFFSET 0.000000 0.000000 0.000000
									}
								}
							}
						}
					}
				}
			}
		}
	}
}
MOTION
Frames: 5
Frame Time: 0.016667
1.440470 12.616410 -1.197810 -81.771514 -39.735526 49.667876 -15.514937 7.118801 3.738134 -41.667660 -18.068281 -53.750663 27.429911 9.268918 -23.158188 0.389811 3.698348 3.042575 0.508870 0.516550 0.530730 19.228584 -3.090441 9.114213 -31.348870 20.113969 -6.267391 43.248687 40.761526 -62.124105 -0.996411 -3.284946 3.105575 0.096340 -0.249970 0.089680 -4.272330 -0.745544 -11.992331 10.636463 2.099074 57.015838 -23.610354 8.151816 16.480674 15.371176 -7.773035 -16.382856 -18.446668 13.418164 49.428755 -5.770710 6.955380 -7.553840 -10.147982 -27.872370 15.993485 -28.026901 -6.188475 -4.404281 33.561529 0.556545 -1.664874 -3.629156 3.431925 0.217500 -0.203420 0.313470 0.039740 -20.760642 41.875758 -6.635401 -25.128963 14.215901 -28.581676 -84.066276 63.656816 -44.063618 4.041167 -1.726002 0.225970 -0.000160 -0.248740 -0.007510 
1.389710 12.542440 -1.157790 -79.850564 -42.674254 47.818262 -15.754838 6.810839 4.187729 -43.965513 -21.784949 -56.823419 34.914241 9.191453 -15.300790 0.395903 4.016936 2.883963 0.392260 0.339970 0.541110 19.106252 -2.499920 9.386427 -36.101811 19.020804 -4.597417 44.442734 42.899120 -64.699333 -0.790286 -2.686386 3.309095 -0.019480 -0.277700 0.089570 -3.911130 -1.534751 -12.193690 5.744872 3.463746 57.426618 -22.587419 7.531118 15.213507 15.748638 -6.941626 -17.124473 -17.945738 13.186684 51.207794 -9.158290 8.446350 -6.709600 -8.734318 -27.094142 16.068295 -31.047914 -5.225882 -2.532067 29.331607 4.509061 -0.030483 -3.665930 3.285466 0.274320 -0.197970 0.297270 -0.070990 -22.661297 41.378704 -5.484423 -22.597722 10.089506 -30.204744 -86.317809 61.663572 -43.639937 4.232307 -1.649375 0.189730 -0.031820 -0.160580 -0.071890 
1.295910 12.499580 -1.149200 -80.571160 -50.041411 47.412015 -16.079862 6.632954 4.537531 -43.592556 -26.154025 -68.148835 48.339853 6.327771 1.537499 0.750327 5.259040 2.429691 0.476090 0.502100 0.556080 18.959414 -1.747155 9.624110 -44.497919 19.841263 -1.225490 59.903026 46.809467 -56.611843 -0.633789 -2.188546 3.460252 0.037470 -0.296540 0.114740 -3.259021 -2.507906 -12.274577 -3.985569 8.709788 54.546840 -20.481311 9.095545 15.382435 15.710296 -7.062097 -16.749546 -18.168614 14.218721 49.783905 -8.579730 9.233330 -5.894400 -5.810308 -24.733568 15.241587 -35.731737 -4.722064 -2.267569 29.184543 5.069848 0.502763 -3.631554 3.405798 0.160110 -0.185660 0.332320 -0.001520 -25.738370 41.016681 -5.624512 -21.706931 9.000405 -31.878597 -75.388011 57.138804 -35.329500 4.986931 -2.408519 0.288650 -0.081870 -0.258500 -0.002790 
1.221480 12.399500 -1.170740 -77.364564 -51.555809 45.257940 -16.341634 6.163061 5.098764 -40.792877 -31.798241 -76.013751 57.194813 0.948903 15.631610 1.121632 7.259075 1.728590 0.486020 0.529190 0.573730 18.830997 -1.272913 9.780167 -50.815534 17.582920 -3.614086 68.803247 49.092875 -52.262376 -0.581491 -1.977840 3.508314 0.053610 -0.364650 0.116220 -3.139651 -3.065196 -12.564309 -5.823443 8.513909 53.435775 -18.325528 7.564922 14.546954 14.708348 -5.452798 -16.623751 -14.830487 12.732981 51.252013 -8.329930 10.199380 -5.997280 -6.603759 -23.798599 13.999875 -37.728604 -5.626149 -0.548734 24.893258 11.298214 2.265255 -3.667806 3.374507 0.169030 -0.206310 0.359490 -0.028680 -22.768455 38.161976 -2.447481 -21.922686 11.101135 -26.008916 -67.227233 47.859644 -28.156768 4.174631 -2.284578 0.301850 -0.143580 -0.275870 -0.026570 
1.118280 12.360720 -1.176970 -78.199884 -55.381861 43.885422 -16.273784 6.319275 4.948491 -34.226241 -32.579975 -83.856621 63.176810 -3.021931 24.618051 1.422979 9.187103 1.135531 0.481020 0.466150 0.627090 18.933294 -1.368275 9.838402 -59.496202 16.598842 -9.568055 93.982135 43.296656 -31.591876 -0.655277 -2.148627 3.444722 0.034380 -0.394830 0.087260 -3.272315 -2.776473 -12.616104 -5.631882 9.584666 54.326947 -17.261480 7.723529 12.621966 12.807956 -3.427672 -17.095112 -11.140310 11.901912 55.722575 -6.983840 11.121130 -5.949410 -8.000752 -24.056473 13.676176 -35.769404 -5.330649 1.331787 15.700273 13.229925 2.101243 -3.642990 3.146533 0.298190 -0.245290 0.392380 -0.042290 -17.684002 36.428285 -0.306105 -21.684076 14.355752 -21.074331 -58.742786 40.910991 -21.189203 3.515497 -1.999816 0.227990 -0.105830 -0.275820 -0.100250 
